GIL06_slow2_ik
nRows=3
nColumns=375

# SIMM Motion File Header:
name GIL06_slow2_ik
datacolumns 375
datarows 3
otherdata 1
range 0.51667000 0.53333000
endheader
time	pelvis_tx	pelvis_ty	pelvis_tz	pelvis_tilt	pelvis_list	pelvis_rotation	hip_flexion_r	hip_adduction_r	hip_rotation_r	knee_angle_r	ankle_angle_r	hip_flexion_l	hip_adduction_l	hip_rotation_l	knee_angle_l	ankle_angle_l	lumbar_extension	lumbar_bending	lumbar_rotation	subtalar_angle_r	mtp_angle_r	subtalar_angle_l	mtp_angle_l	asis_r_px	asis_r_py	asis_r_pz	asis_l_px	asis_l_py	asis_l_pz	midasis_px	midasis_py	midasis_pz	psis_r_px	psis_r_py	psis_r_pz	psis_l_px	psis_l_py	psis_l_pz	hip_r_px	hip_r_py	hip_r_pz	hip_l_px	hip_l_py	hip_l_pz	midhip_px	midhip_py	midhip_pz	epicondLat_r_px	epicondLat_r_py	epicondLat_r_pz	epicondMed_r_px	epicondMed_r_py	epicondMed_r_pz	thighwand_r_px	thighwand_r_py	thighwand_r_pz	upperleg1_r_px	upperleg1_r_py	upperleg1_r_pz	upperleg2_r_px	upperleg2_r_py	upperleg2_r_pz	malleolusLat_r_px	malleolusLat_r_py	malleolusLat_r_pz	malleolusMedv_r_px	malleolusMedv_r_py	malleolusMedv_r_pz	shankwand_r_px	shankwand_r_py	shankwand_r_pz	lowerleg1_r_px	lowerleg1_r_py	lowerleg1_r_pz	knee_r_px	knee_r_py	knee_r_pz	ankle_r_px	ankle_r_py	ankle_r_pz	toe_r_px	toe_r_py	toe_r_pz	epicondLat_l_px	epicondLat_l_py	epicondLat_l_pz	epicondMed_l_px	epicondMed_l_py	epicondMed_l_pz	thighwand_l_px	thighwand_l_py	thighwand_l_pz	upperleg1_l_px	upperleg1_l_py	upperleg1_l_pz	upperleg2_l_px	upperleg2_l_py	upperleg2_l_pz	malleolusLat_l_px	malleolusLat_l_py	malleolusLat_l_pz	malleolusMedv_l_px	malleolusMedv_l_py	malleolusMedv_l_pz	shankwand_l_px	shankwand_l_py	shankwand_l_pz	lowerleg1_l_px	lowerleg1_l_py	lowerleg1_l_pz	knee_l_px	knee_l_py	knee_l_pz	ankle_l_px	ankle_l_py	ankle_l_pz	toe_l_px	toe_l_py	toe_l_pz	subclavicle_r_px	subclavicle_r_py	subclavicle_r_pz	subclavicle_l_px	subclavicle_l_py	subclavicle_l_pz	neck_px	neck_py	neck_pz	sternalnotch_px	sternalnotch_py	sternalnotch_pz	xyphoidprocess_px	xyphoidprocess_py	xyphoidprocess_pz	midhip_tx	midhip_ty	midhip_tz	hip_r_tx	hip_r_ty	hip_r_tz	hip_l_tx	hip_l_ty	hip_l_tz	knee_r_tx	knee_r_ty	knee_r_tz	knee_l_tx	knee_l_ty	knee_l_tz	ankle_r_tx	ankle_r_ty	ankle_r_tz	ankle_l_tx	ankle_l_ty	ankle_l_tz	midasis_tx	midasis_ty	midasis_tz	asis_r_tx	asis_r_ty	asis_r_tz	asis_l_tx	asis_l_ty	asis_l_tz	psis_r_tx	psis_r_ty	psis_r_tz	psis_l_tx	psis_l_ty	psis_l_tz	epicondLat_r_tx	epicondLat_r_ty	epicondLat_r_tz	epicondLat_l_tx	epicondLat_l_ty	epicondLat_l_tz	epicondMed_r_tx	epicondMed_r_ty	epicondMed_r_tz	epicondMed_l_tx	epicondMed_l_ty	epicondMed_l_tz	malleolusLat_r_tx	malleolusLat_r_ty	malleolusLat_r_tz	malleolusLat_l_tx	malleolusLat_l_ty	malleolusLat_l_tz	malleolusMedv_r_tx	malleolusMedv_r_ty	malleolusMedv_r_tz	malleolusMedv_l_tx	malleolusMedv_l_ty	malleolusMedv_l_tz	neck_tx	neck_ty	neck_tz	subclavicle_r_tx	subclavicle_r_ty	subclavicle_r_tz	subclavicle_l_tx	subclavicle_l_ty	subclavicle_l_tz	sternalnotch_tx	sternalnotch_ty	sternalnotch_tz	xyphoidprocess_tx	xyphoidprocess_ty	xyphoidprocess_tz	thighwand_r_tx	thighwand_r_ty	thighwand_r_tz	thighwand_l_tx	thighwand_l_ty	thighwand_l_tz	upperleg1_r_tx	upperleg1_r_ty	upperleg1_r_tz	upperleg1_l_tx	upperleg1_l_ty	upperleg1_l_tz	upperleg2_r_tx	upperleg2_r_ty	upperleg2_r_tz	upperleg2_l_tx	upperleg2_l_ty	upperleg2_l_tz	shankwand_r_tx	shankwand_r_ty	shankwand_r_tz	shankwand_l_tx	shankwand_l_ty	shankwand_l_tz	lowerleg1_r_tx	lowerleg1_r_ty	lowerleg1_r_tz	lowerleg1_l_tx	lowerleg1_l_ty	lowerleg1_l_tz	toe_r_tx	toe_r_ty	toe_r_tz	toe_l_tx	toe_l_ty	toe_l_tz	ground_force_vx	ground_force_vy	ground_force_vz	ground_force_px	ground_force_py	ground_force_pz	ground_force_vx	ground_force_vy	ground_force_vz	ground_force_px	ground_force_py	ground_force_pz	ground_torque_x	ground_torque_y	ground_torque_z	ground_torque_x	ground_torque_y	ground_torque_z	ground_marker_px	ground_marker_py	ground_marker_pz	ground_marker_px	ground_marker_py	ground_marker_pz	ground_marker_px	ground_marker_py	ground_marker_pz	ground_marker_px	ground_marker_py	ground_marker_pz	ground_marker_px	ground_marker_py	ground_marker_pz	ground_marker_px	ground_marker_py	ground_marker_pz	ground_marker_px	ground_marker_py	ground_marker_pz	ground_marker_px	ground_marker_py	ground_marker_pz	ground_marker_px	ground_marker_py	ground_marker_pz	ground_marker_px	ground_marker_py	ground_marker_pz	ground_marker_px	ground_marker_py	ground_marker_pz	ground_marker_px	ground_marker_py	ground_marker_pz	ground_marker_px	ground_marker_py	ground_marker_pz	ground_marker_px	ground_marker_py	ground_marker_pz	ground_marker_px	ground_marker_py	ground_marker_pz	ground_marker_px	ground_marker_py	ground_marker_pz	ground_marker_px	ground_marker_py	ground_marker_pz	ground_marker_px	ground_marker_py	ground_marker_pz	ground_marker_px	ground_marker_py	ground_marker_pz	ground_marker_px	ground_marker_py	ground_marker_pz	ground_marker_px	ground_marker_py	ground_marker_pz	ground_marker_px	ground_marker_py	ground_marker_pz	ground_marker_px	ground_marker_py	ground_marker_pz	ground_marker_px	ground_marker_py	ground_marker_pz	ground_marker_px	ground_marker_py	ground_marker_pz	ground_marker_px	ground_marker_py	ground_marker_pz	ground_marker_px	ground_marker_py	ground_marker_pz	ground_marker_px	ground_marker_py	ground_marker_pz	ground_marker_px	ground_marker_py	ground_marker_pz	ground_marker_px	ground_marker_py	ground_marker_pz	ground_marker_px	ground_marker_py	ground_marker_pz	ground_marker_px	ground_marker_py	ground_marker_pz	ground_marker_px	ground_marker_py	ground_marker_pz	ground_marker_px	ground_marker_py	ground_marker_pz	ground_marker_px	ground_marker_py	ground_marker_pz	ground_marker_px	ground_marker_py	ground_marker_pz	ground_marker_px	ground_marker_py	ground_marker_pz
      0.51667000	      1.65279770	      0.83457172	     -0.28074346	     -6.02311619	      0.49172572	     -0.46337767	     32.81804001	      0.60189085	      7.91492324	    -28.40854570	      1.68814084	     -3.15024038	      5.11654614	     -1.92169684	     -2.11167906	      4.92060332	      6.16145352	     -0.42090339	      5.25522107	      0.00000000	      0.00000000	      0.00000000	      0.00000000	      1.70745219	      0.81630347	     -0.16336341	      1.70821974	      0.81748009	     -0.40928004	      1.66617198	      0.83315964	     -0.28063470	      1.47840243	      0.92831731	     -0.25271130	      1.47419325	      0.92735962	     -0.30778636	      1.57787762	      0.77794039	     -0.20162929	      1.57931236	      0.77917342	     -0.36204605	      1.57859499	      0.77855690	     -0.28183767	      1.75877719	      0.43826246	     -0.14787891	      1.72030966	      0.43134177	     -0.28763494	      1.82849655	      0.64714211	     -0.16764554	      1.78176961	      0.64889757	     -0.18170375	      1.78964395	      0.57160493	     -0.18656769	      1.73082835	      0.07545152	     -0.14054612	      1.73851024	      0.07879596	     -0.21682771	      1.82296118	      0.21994033	     -0.17723499	      1.77632753	      0.22628618	     -0.18525726	      1.74472591	      0.44868981	     -0.20661107	      1.73576461	      0.08087676	     -0.18878993	      1.84616987	      0.05803802	     -0.18003159	      1.51115493	      0.40457200	     -0.39864225	      1.51748661	      0.40152199	     -0.25019387	      1.72060566	      0.55376043	     -0.36879067	      1.67614919	      0.57656627	     -0.37363900	      1.64749820	      0.50912786	     -0.36417121	      1.41852393	      0.04861794	     -0.34261499	      1.44430621	      0.06662130	     -0.26910179	      1.42137733	      0.15612007	     -0.41552874	      1.43137774	      0.16986854	     -0.36968858	      1.51691080	      0.41913348	     -0.33254522	      1.44478064	      0.05914840	     -0.30267351	      1.53709027	      0.02411268	     -0.32707316	      1.62297788	      1.27726805	     -0.23326799	      1.62477390	      1.28145805	     -0.31507158	      1.48430275	      1.32313330	     -0.27281315	      1.60852919	      1.27173920	     -0.28709021	      1.67240242	      1.20821540	     -0.28774240	      1.57265000	      0.77112100	     -0.27805600	      1.55321000	      0.77514000	     -0.19912400	      1.55476600	      0.77449200	     -0.35474400	      1.73777300	      0.42461000	     -0.19600000	      1.50424500	      0.42566300	     -0.32306600	      1.73152400	      0.07209000	     -0.20441900	      1.43871100	      0.06340300	     -0.30076500	      1.68324500	      0.84427600	     -0.27593100	      1.68200100	      0.84479500	     -0.15150600	      1.68448900	      0.84375800	     -0.40035600	      1.44145900	      0.91987600	     -0.24358900	      1.43954900	      0.92060800	     -0.29867900	      1.74597200	      0.42955800	     -0.12514400	      1.50170300	      0.41956500	     -0.39426000	      1.73444200	      0.41836800	     -0.26345100	      1.49806100	      0.42238900	     -0.23954100	      1.72205500	      0.07136600	     -0.16710900	      1.42105200	      0.06442400	     -0.33608400	      1.73901400	      0.08243300	     -0.24089900	      1.43874800	      0.08190500	     -0.26018600	      1.49601900	      1.34723300	     -0.27379200	      1.61691400	      1.27388000	     -0.23196200	      1.62143100	      1.27813200	     -0.31412200	      1.60308700	      1.27187000	     -0.28629000	      1.65126500	      1.19604900	     -0.28641400	      1.81560900	      0.63909500	     -0.13641300	      1.71145300	      0.57180200	     -0.34716400	      1.76927000	      0.63928500	     -0.15323700	      1.66566800	      0.59488300	     -0.35400200	      1.78445800	      0.56390100	     -0.15793600	      1.63564100	      0.52832200	     -0.34631200	      1.81725700	      0.21393800	     -0.17286300	      1.43241900	      0.16647700	     -0.40932400	      1.77427000	      0.22134400	     -0.18465200	      1.43742900	      0.18107800	     -0.36332600	      1.83531900	      0.06233100	     -0.19389200	      1.53552500	      0.04541200	     -0.31583800	      0.00000000	      0.00000000	      0.00000000	      1.87657739	      0.00000000	     -0.22911546	      9.85573955	    761.49881865	     24.75759542	      1.54815869	      0.00000000	     -0.30794891	      0.00000000	      0.00000000	      0.00000000	      0.00000000	     -3.36308203	      0.00000000	      1.57265019	      0.77112067	     -0.27805614	      1.55321026	      0.77514005	     -0.19912413	      1.55476594	      0.77449191	     -0.35474411	      1.73777282	      0.42460999	     -0.19599979	      1.50424480	      0.42566264	     -0.32306558	      1.73152375	      0.07208958	     -0.20441917	      1.43871105	      0.06340338	     -0.30076528	      1.68324518	      0.84427643	     -0.27593124	      1.68200135	      0.84479469	     -0.15150613	      1.68448913	      0.84375823	     -0.40035638	      1.44145930	      0.91987634	     -0.24358885	      1.43954909	      0.92060804	     -0.29867917	      1.74597156	      0.42955834	     -0.12514399	      1.50170255	      0.41956544	     -0.39425975	      1.73444211	      0.41836762	     -0.26345098	      1.49806094	      0.42238900	     -0.23954135	      1.72205460	      0.07136635	     -0.16710882	      1.42105246	      0.06442369	     -0.33608362	      1.73901403	      0.08243312	     -0.24089918	      1.43874788	      0.08190491	     -0.26018575	      1.49601853	      1.34723341	     -0.27379158	      1.61691356	      1.27388012	     -0.23196234	      1.62143123	      1.27813244	     -0.31412235	      1.60308743	      1.27187037	     -0.28628978	      1.65126526	      1.19604933	     -0.28641418	      1.81560898	      0.63909519	     -0.13641313	      1.71145296	      0.57180244	     -0.34716395	      1.76927018	      0.63928515	     -0.15323679	      1.66566801	      0.59488279	     -0.35400209	      1.78445792	      0.56390142	     -0.15793563	      1.63564086	      0.52832216	     -0.34631169	      1.81725657	      0.21393801	     -0.17286317	      1.43241918	      0.16647694	     -0.40932354	      1.77427030	      0.22134444	     -0.18465218	      1.43742931	      0.18107773	     -0.36332610	      1.83531868	      0.06233054	     -0.19389233	      1.53552508	      0.04541168	     -0.31583840
      0.52500000	      1.65951971	      0.83377922	     -0.28041606	     -6.05232478	      0.51421230	     -0.17682872	     32.81559635	      0.56672219	      7.76048936	    -25.87532090	      0.34925484	     -3.57194924	      5.15685073	     -1.99504526	     -2.21540146	      5.17008099	      6.24509346	     -0.55202639	      5.29091402	      0.00000000	      0.00000000	      0.00000000	      0.00000000	      1.71474387	      0.81537794	     -0.16332378	      1.71429916	      0.81677982	     -0.40924002	      1.67289369	      0.83236083	     -0.28037456	      1.48530871	      0.92757989	     -0.25143831	      1.48082752	      0.92667468	     -0.30649280	      1.58496421	      0.77711006	     -0.20098519	      1.58560837	      0.77848960	     -0.36140589	      1.58528629	      0.77779983	     -0.28119554	      1.76579557	      0.43724767	     -0.14817964	      1.72700993	      0.43056955	     -0.28785954	      1.83558627	      0.64611987	     -0.16777254	      1.78882881	      0.64792337	     -0.18172276	      1.79664927	      0.57063420	     -0.18672672	      1.75367315	      0.07398641	     -0.14329178	      1.76087063	      0.07817815	     -0.21957876	      1.83930712	      0.22257460	     -0.17934618	      1.79240805	      0.22694970	     -0.18713461	      1.75112018	      0.44791635	     -0.20680889	      1.75815976	      0.07994772	     -0.19151623	      1.86906284	      0.05928172	     -0.18370222	      1.51424961	      0.40445899	     -0.39773732	      1.52150144	      0.40128401	     -0.24933366	      1.72506309	      0.55196659	     -0.36915231	      1.68075900	      0.57512671	     -0.37370713	      1.65163471	      0.50791288	     -0.36408769	      1.41850031	      0.04939644	     -0.34126598	      1.44491405	      0.06711610	     -0.26790819	      1.42194612	      0.15689730	     -0.41415602	      1.43236526	      0.17052790	     -0.36837395	      1.52055104	      0.41893228	     -0.33167146	      1.44510658	      0.05965349	     -0.30148499	      1.53704189	      0.02413462	     -0.32658919	      1.62965565	      1.27663854	     -0.23323864	      1.63099466	      1.28071690	     -0.31505662	      1.49071872	      1.32231372	     -0.27207860	      1.61491467	      1.27102102	     -0.28697233	      1.67884569	      1.20755867	     -0.28789050	      1.57927600	      0.77039200	     -0.27791100	      1.56019400	      0.77421500	     -0.19882400	      1.56101800	      0.77399400	     -0.35445100	      1.74428600	      0.42423100	     -0.19789900	      1.50797000	      0.42569600	     -0.32296600	      1.75401700	      0.07093600	     -0.20461100	      1.43903700	      0.06390700	     -0.30066900	      1.68989600	      0.84350900	     -0.27605200	      1.68923700	      0.84368600	     -0.15166900	      1.69055400	      0.84333300	     -0.40043500	      1.44821800	      0.91914400	     -0.24235700	      1.44599400	      0.92004300	     -0.29740500	      1.75264100	      0.42881300	     -0.12703700	      1.50494000	      0.41972200	     -0.39415100	      1.73787300	      0.41743300	     -0.26569500	      1.50341300	      0.42221400	     -0.23929200	      1.74460200	      0.06996800	     -0.16729300	      1.42129400	      0.06511400	     -0.33594000	      1.76202900	      0.08113600	     -0.24109000	      1.43872400	      0.08241400	     -0.25990500	      1.50237200	      1.34648000	     -0.27315900	      1.62331200	      1.27315100	     -0.23221300	      1.62790100	      1.27745300	     -0.31380600	      1.60950600	      1.27128200	     -0.28617400	      1.65773500	      1.19536500	     -0.28641600	      1.82189100	      0.63704000	     -0.13775100	      1.71622500	      0.57056500	     -0.34817100	      1.77524000	      0.63743200	     -0.15389300	      1.67042900	      0.59406000	     -0.35496800	      1.79013700	      0.56143900	     -0.15957400	      1.64067400	      0.52806500	     -0.34700500	      1.83360000	      0.21693500	     -0.17366800	      1.43341900	      0.16710300	     -0.40921600	      1.79037400	      0.22226700	     -0.18608100	      1.43833600	      0.18178600	     -0.36289200	      1.85832500	      0.06351200	     -0.19466500	      1.53573200	      0.04541400	     -0.31591300	      0.00000000	      0.00000000	      0.00000000	      1.87691150	      0.00000000	     -0.22903694	     12.56355972	    766.66247776	     25.33818409	      1.54974585	      0.00000000	     -0.30782928	      0.00000000	      0.00000000	      0.00000000	      0.00000000	     -3.73567407	      0.00000000	      1.57927585	      0.77039182	     -0.27791148	      1.56019437	      0.77421474	     -0.19882442	      1.56101823	      0.77399409	     -0.35445121	      1.74428582	      0.42423123	     -0.19789909	      1.50797009	      0.42569569	     -0.32296568	      1.75401700	      0.07093622	     -0.20461103	      1.43903673	      0.06390703	     -0.30066943	      1.68989599	      0.84350932	     -0.27605173	      1.68923748	      0.84368563	     -0.15166874	      1.69055450	      0.84333295	     -0.40043473	      1.44821787	      0.91914386	     -0.24235673	      1.44599390	      0.92004323	     -0.29740503	      1.75264108	      0.42881349	     -0.12703697	      1.50493979	      0.41972217	     -0.39415121	      1.73787284	      0.41743255	     -0.26569471	      1.50341344	      0.42221355	     -0.23929170	      1.74460161	      0.06996790	     -0.16729264	      1.42129445	      0.06511392	     -0.33593988	      1.76202929	      0.08113551	     -0.24108952	      1.43872440	      0.08241408	     -0.25990456	      1.50237215	      1.34647965	     -0.27315924	      1.62331176	      1.27315128	     -0.23221274	      1.62790084	      1.27745295	     -0.31380615	      1.60950649	      1.27128160	     -0.28617397	      1.65773487	      1.19536531	     -0.28641638	      1.82189059	      0.63704050	     -0.13775128	      1.71622455	      0.57056457	     -0.34817138	      1.77523971	      0.63743168	     -0.15389287	      1.67042935	      0.59406048	     -0.35496843	      1.79013705	      0.56143910	     -0.15957353	      1.64067411	      0.52806544	     -0.34700519	      1.83359969	      0.21693499	     -0.17366788	      1.43341923	      0.16710347	     -0.40921637	      1.79037440	      0.22226703	     -0.18608150	      1.43833578	      0.18178633	     -0.36289197	      1.85832500	      0.06351211	     -0.19466490	      1.53573167	      0.04541410	     -0.31591287
      0.53333000	      1.66633882	      0.83297429	     -0.28008602	     -6.07578910	      0.53205301	      0.10868871	     32.78528312	      0.52012577	      7.54649214	    -23.45899971	     -1.04861905	     -3.98063665	      5.18439166	     -2.10078159	     -2.37138125	      5.44640953	      6.33571605	     -0.67263371	      5.35925218	      0.00000000	      0.00000000	      0.00000000	      0.00000000	      1.72213190	      0.81445503	     -0.16328239	      1.72047730	      0.81606289	     -0.40919221	      1.67971233	      0.83155103	     -0.28011153	      1.49230691	      0.92681373	     -0.25017276	      1.48755447	      0.92595622	     -0.30520526	      1.59215445	      0.77626567	     -0.20033648	      1.59200951	      0.77777923	     -0.36075719	      1.59208198	      0.77702245	     -0.28054683	      1.77272351	      0.43613591	     -0.14836137	      1.73376036	      0.42974524	     -0.28800530	      1.84269095	      0.64497583	     -0.16766591	      1.79591819	      0.64684917	     -0.18155550	      1.80365820	      0.56956162	     -0.18670741	      1.77552036	      0.07308369	     -0.14599932	      1.78229938	      0.07808897	     -0.22227559	      1.85490032	      0.22529046	     -0.18126217	      1.80783731	      0.22779893	     -0.18888479	      1.75749792	      0.44702375	     -0.20689733	      1.77960726	      0.07955384	     -0.19419371	      1.89088713	      0.06069527	     -0.18720946	      1.51754389	      0.40433104	     -0.39684400	      1.52579181	      0.40099474	     -0.24849591	      1.72967102	      0.55020248	     -0.36961323	      1.68551509	      0.57370383	     -0.37384764	      1.65594442	      0.50670772	     -0.36407242	      1.41848950	      0.05024171	     -0.33991766	      1.44557464	      0.06764368	     -0.26672883	      1.42256198	      0.15774403	     -0.41277322	      1.43342723	      0.17123904	     -0.36705473	      1.52442473	      0.41869521	     -0.33081332	      1.44546564	      0.06019925	     -0.30031005	      1.53699846	      0.02419098	     -0.32617620	      1.63636238	      1.27599456	     -0.23320841	      1.63719801	      1.27996982	     -0.31503815	      1.49713599	      1.32145208	     -0.27125918	      1.62130119	      1.27029046	     -0.28684410	      1.68530256	      1.20690429	     -0.28807103	      1.58598900	      0.76963800	     -0.27778700	      1.56727300	      0.77326000	     -0.19853200	      1.56734600	      0.77347000	     -0.35416100	      1.75069800	      0.42378900	     -0.19978700	      1.51190200	      0.42569400	     -0.32290800	      1.77565600	      0.07031900	     -0.20464900	      1.43937400	      0.06444400	     -0.30059900	      1.69662500	      0.84272500	     -0.27619300	      1.69656700	      0.84255800	     -0.15186400	      1.69668200	      0.84289200	     -0.40052300	      1.45508200	      0.91837200	     -0.24104600	      1.45252500	      0.91943000	     -0.29607200	      1.75915600	      0.42797400	     -0.12891300	      1.50833600	      0.41986700	     -0.39408000	      1.74162400	      0.41670600	     -0.26882800	      1.50898800	      0.42126000	     -0.23936200	      1.76630300	      0.06914500	     -0.16732000	      1.42155900	      0.06584500	     -0.33582600	      1.78406300	      0.08054000	     -0.24110700	      1.43852700	      0.08289300	     -0.25960200	      1.50843200	      1.34561500	     -0.27239700	      1.63018300	      1.27237500	     -0.23205000	      1.63445900	      1.27694700	     -0.31340000	      1.61596800	      1.27062400	     -0.28600800	      1.66470200	      1.19489000	     -0.28650500	      1.82808900	      0.63476200	     -0.13897900	      1.72113400	      0.56930000	     -0.34933400	      1.78141100	      0.63527200	     -0.15474400	      1.67540000	      0.59368200	     -0.35514100	      1.79577300	      0.55891100	     -0.16145400	      1.64525600	      0.52771000	     -0.34767900	      1.84921100	      0.22007800	     -0.17440800	      1.43451400	      0.16774100	     -0.40913700	      1.80568300	      0.22354000	     -0.18737100	      1.43913400	      0.18193500	     -0.36261100	      1.88040100	      0.06490600	     -0.19539200	      1.53595600	      0.04543800	     -0.31595800	      0.00000000	      0.00000000	      0.00000000	      1.87748462	      0.00000000	     -0.22896957	     15.38879460	    772.30264025	     26.31822687	      1.55128149	      0.00000000	     -0.30771530	      0.00000000	      0.00000000	      0.00000000	      0.00000000	     -4.07067090	      0.00000000	      1.58598876	      0.76963848	     -0.27778661	      1.56727326	      0.77326041	     -0.19853243	      1.56734574	      0.77346969	     -0.35416138	      1.75069833	      0.42378885	     -0.19978727	      1.51190162	      0.42569429	     -0.32290766	      1.77565551	      0.07031856	     -0.20464854	      1.43937361	      0.06444413	     -0.30059943	      1.69662452	      0.84272492	     -0.27619350	      1.69656670	      0.84255779	     -0.15186353	      1.69668221	      0.84289211	     -0.40052345	      1.45508182	      0.91837174	     -0.24104621	      1.45252502	      0.91942996	     -0.29607156	      1.75915635	      0.42797366	     -0.12891275	      1.50833583	      0.41986662	     -0.39408046	      1.74162388	      0.41670579	     -0.26882839	      1.50898802	      0.42125961	     -0.23936175	      1.76630259	      0.06914482	     -0.16732031	      1.42155921	      0.06584536	     -0.33582634	      1.78406274	      0.08053965	     -0.24110682	      1.43852723	      0.08289280	     -0.25960171	      1.50843155	      1.34561515	     -0.27239743	      1.63018262	      1.27237546	     -0.23205020	      1.63445938	      1.27694666	     -0.31339970	      1.61596775	      1.27062380	     -0.28600791	      1.66470158	      1.19488955	     -0.28650454	      1.82808888	      0.63476229	     -0.13897905	      1.72113419	      0.56930047	     -0.34933382	      1.78141141	      0.63527232	     -0.15474419	      1.67539990	      0.59368187	     -0.35514060	      1.79577303	      0.55891109	     -0.16145410	      1.64525616	      0.52770966	     -0.34767893	      1.84921098	      0.22007792	     -0.17440756	      1.43451357	      0.16774081	     -0.40913707	      1.80568349	      0.22354007	     -0.18737081	      1.43913352	      0.18193473	     -0.36261123	      1.88040125	      0.06490591	     -0.19539231	      1.53595579	      0.04543849	     -0.31595838
